<?xml version="1.0" encoding="UTF-8"?>
<svg version="1.1" xmlns="http://www.w3.org/2000/svg" width="500" height="500">
<path d="M0 0 C165 0 330 0 500 0 C500 165 500 330 500 500 C335 500 170 500 0 500 C0 335 0 170 0 0 Z " fill="#000000" transform="translate(0,0)"/>
<path d="M0 0 C3.375 -0.125 3.375 -0.125 7 0 C7.99 0.99 7.99 0.99 9 2 C11.53656163 2.87938006 14.05205861 3.68193068 16.625 4.4375 C18.07604012 4.87588902 19.52656826 5.31597648 20.9765625 5.7578125 C21.67168945 5.96954102 22.36681641 6.18126953 23.08300781 6.39941406 C26.44935331 7.45407656 29.72125795 8.70216461 33 10 C33 10.66 33 11.32 33 12 C34.13695312 12.11472656 35.27390625 12.22945312 36.4453125 12.34765625 C41.0735581 12.92593287 45.40383484 14.14528826 49.875 15.4375 C58.03374045 17.70705439 66.01342189 18.90830567 74.4375 19.640625 C78 20 78 20 81 21 C83.8124224 21.32259277 86.61960793 21.61056686 89.4375 21.875 C96.95777268 22.61909313 104.39320432 23.63126887 111.85400391 24.82373047 C120.67692979 26.1883112 129.55389793 27.03383318 138.44506836 27.82202148 C144.54382863 28.41294815 149.55208561 29.13686251 155 32 C154.60573597 37.78253906 152.6823648 42.34239501 150.39453125 47.63671875 C146.3182996 57.46763038 143.45013064 67.64372832 140.89453125 77.953125 C140 81 140 81 138 84 C136.68 83.67 135.36 83.34 134 83 C133.97303635 81.20841511 133.95362083 79.41671527 133.9375 77.625 C133.92589844 76.62726563 133.91429687 75.62953125 133.90234375 74.6015625 C134 72 134 72 135 70 C137.27915419 56.12644647 137.27915419 56.12644647 134 43 C123.71034427 34.76827542 108.24286035 34.11149658 95.66113281 32.30664062 C94.57026367 32.15001953 93.47939453 31.99339844 92.35546875 31.83203125 C91.37215576 31.69514893 90.38884277 31.5582666 89.37573242 31.41723633 C87 31 87 31 85 30 C81.86030689 29.7369974 78.71200019 29.7685401 75.5625 29.75 C74.69044922 29.729375 73.81839844 29.70875 72.91992188 29.6875 C71.66211914 29.67976563 71.66211914 29.67976563 70.37890625 29.671875 C69.6113501 29.6625293 68.84379395 29.65318359 68.05297852 29.64355469 C65.40956868 30.10251275 64.59967577 30.87028241 63 33 C62.17776718 34.98752841 62.17776718 34.98752841 61.68359375 37.203125 C61.47669922 38.01910156 61.26980469 38.83507812 61.05664062 39.67578125 C60.85232422 40.52527344 60.64800781 41.37476563 60.4375 42.25 C60.02013934 43.92202691 59.60217997 45.59390449 59.18359375 47.265625 C58.9837085 48.08095703 58.78382324 48.89628906 58.57788086 49.73632812 C58.09564707 51.62533179 57.54087714 53.49562749 56.96875 55.359375 C55.59701923 60.51442775 54.85872325 65.72966625 54.0625 71 C51.77223448 85.68998974 51.77223448 85.68998974 50.375 92.8125 C50.15585938 93.93269531 49.93671875 95.05289063 49.7109375 96.20703125 C49 99 49 99 48.02026367 100.82421875 C46.80171022 103.42286636 46.40182453 105.76988155 45.96484375 108.60546875 C45.79533203 109.67087891 45.62582031 110.73628906 45.45117188 111.83398438 C45.1969043 113.49397461 45.1969043 113.49397461 44.9375 115.1875 C44.59603556 117.38988215 44.2511722 119.59174095 43.90234375 121.79296875 C43.67792603 123.25512817 43.67792603 123.25512817 43.44897461 124.74682617 C43 127 43 127 42 128 C41.95936168 129.66617115 41.957279 131.33388095 42 133 C51.63537753 136.89121015 62.48593441 140.82039647 73 139 C79.74076496 135.65713085 82.30276332 128.55043194 85 122 C86.32 122 87.64 122 89 122 C89.49481591 127.56667894 88.26083525 131.50870232 86.26953125 136.6875 C81.81427325 148.31229626 78.40963337 159.96984525 75.76074219 172.13305664 C71.53162475 191.46837525 71.53162475 191.46837525 68 195 C65.375 195.125 65.375 195.125 63 195 C62.68194202 189.6990337 63.31198251 185.18711861 64.5 180 C66.14869265 172.68636814 67.4340462 166.03161841 64 159 C61.72634723 157.44969681 61.72634723 157.44969681 59 156 C58.07703125 155.48179687 57.1540625 154.96359375 56.203125 154.4296875 C49.96412062 151.14513228 45.06554627 149.23551821 38 149 C36.91171212 153.46937643 35.955826 157.84869668 35.5625 162.4375 C35.24516893 165.71847661 34.5757033 168.6141358 33.5625 171.75 C31.96594556 176.7179194 31.20289511 181.65785927 30.52734375 186.82421875 C30 190 30 190 29.03125 193.24609375 C27.74578187 197.9253925 27.15879083 202.56690687 26.5625 207.375 C25.31830268 216.97493907 23.77916319 226.48589331 22 236 C21.34 236 20.68 236 20 236 C19.92652344 236.85658203 19.92652344 236.85658203 19.8515625 237.73046875 C18.23076923 255.30769231 18.23076923 255.30769231 16 262 C15.8552037 263.95475009 15.77932498 265.9151138 15.75 267.875 C15.72421875 268.90367187 15.6984375 269.93234375 15.671875 270.9921875 C16.06205018 274.56879333 16.73089651 276.20512863 19 279 C24.52704356 282.88328645 30.39005562 284.49367124 36.875 286.1875 C37.81730469 286.44724609 38.75960937 286.70699219 39.73046875 286.97460938 C49.12475463 289.48884771 58.05075724 290.18058185 67.75 290.1875 C68.66910156 290.19974609 69.58820313 290.21199219 70.53515625 290.22460938 C80.48093615 290.24619935 86.50193883 286.46311751 94 280 C97.93593595 275.52165592 101.06602035 270.57535852 104.12890625 265.4765625 C104.66124878 264.59327271 104.66124878 264.59327271 105.2043457 263.69213867 C106.19966444 262.02196455 107.17082838 260.33746556 108.140625 258.65234375 C109.98111685 256.02693626 111.02934029 255.05813322 114 254 C114.43214949 260.59027968 113.45629075 265.15288956 111.0234375 271.26953125 C109.57977684 275.12112973 108.79301785 278.96882592 108 283 C107.34 283 106.68 283 106 283 C105.9175 283.845625 105.835 284.69125 105.75 285.5625 C104.99293032 289.0324027 103.8996193 291.23520438 102.03515625 294.19140625 C100.9110438 296.05252259 100.9110438 296.05252259 100.0546875 298.421875 C98.96468369 301.08632876 97.65850374 303.29552492 96.0625 305.6875 C95.55847656 306.45449219 95.05445313 307.22148437 94.53515625 308.01171875 C92.4316372 310.73612383 90.72611612 311.89023826 87.3125 312.40625 C76.7521363 312.70512822 66.66979106 310.30038447 57 306 C56.34 305.34 55.68 304.68 55 304 C53.28943083 303.45817792 51.55563298 302.98806488 49.8125 302.5625 C45.28517064 301.39511272 41.25534941 299.91056504 37 298 C35.67723944 297.62691369 34.34767923 297.26953585 33 297 C33 296.34 33 295.68 33 295 C32.31292969 294.86722656 31.62585938 294.73445313 30.91796875 294.59765625 C30.01691406 294.42105469 29.11585938 294.24445313 28.1875 294.0625 C27.29417969 293.88847656 26.40085937 293.71445312 25.48046875 293.53515625 C23 293 23 293 20 292 C20 291.34 20 290.68 20 290 C18.80375 289.938125 17.6075 289.87625 16.375 289.8125 C10.7673747 289.20508062 5.82344312 287.23980368 0.5703125 285.265625 C-3.62804073 283.77736849 -7.8367478 282.72566264 -12.18359375 281.7734375 C-15 281 -15 281 -18.12255859 279.60009766 C-22.2609715 277.80356528 -26.48484359 276.7076652 -30.85546875 275.625 C-32.54627041 275.19289006 -34.23702423 274.76059287 -35.92773438 274.328125 C-38.56682611 273.66016263 -41.20662458 272.9952114 -43.84741211 272.33398438 C-46.4146796 271.68889687 -48.978878 271.03258253 -51.54296875 270.375 C-52.33156784 270.18115723 -53.12016693 269.98731445 -53.93266296 269.78759766 C-61.11156633 267.93620374 -61.11156633 267.93620374 -64 265 C-64.3125 262.375 -64.3125 262.375 -64 260 C-63 259 -63 259 -59.875 258.8125 C-55.82754737 259.00834448 -52.82368327 259.75145036 -49 261 C-49 261.66 -49 262.32 -49 263 C-48.24074219 263.06058594 -47.48148438 263.12117188 -46.69921875 263.18359375 C-45.70535156 263.26738281 -44.71148437 263.35117187 -43.6875 263.4375 C-42.70136719 263.51871094 -41.71523437 263.59992188 -40.69921875 263.68359375 C-38 264 -38 264 -35 265 C-29.84561365 265.37565867 -24.54874505 265.75681518 -20 263 C-18.96352976 261.69481525 -17.95577057 260.36538653 -17 259 C-16.34 259 -15.68 259 -15 259 C-15.05800781 258.42636719 -15.11601563 257.85273438 -15.17578125 257.26171875 C-15.56706998 249.89431099 -13.99398318 243.70184309 -11.99609375 236.70288086 C-10.01750067 229.57170163 -8.89087596 222.4564525 -7.98901367 215.11767578 C-7.3784182 210.2281529 -6.40490223 205.73875753 -5 201 C-4.60883311 198.71435816 -4.25317771 196.42228486 -3.9375 194.125 C-3.10832232 188.10832232 -3.10832232 188.10832232 -2 187 C-1.57772403 184.07152091 -1.21106068 181.15392118 -0.87890625 178.21484375 C-0.66343252 176.38606523 -0.44793702 174.55728927 -0.23242188 172.72851562 C0.10248543 169.8410716 0.43566705 166.95343568 0.76782227 164.06567383 C1.08957547 161.28153828 1.4176281 158.49819416 1.74609375 155.71484375 C1.84200302 154.86244614 1.93791229 154.01004852 2.03672791 153.13182068 C2.6514882 147.93905004 3.66917472 143.05613165 5 138 C5.29042287 136.43626566 5.55619903 134.86744091 5.78125 133.29296875 C5.89992432 132.46837158 6.01859863 131.64377441 6.14086914 130.79418945 C6.25938232 129.93398193 6.37789551 129.07377441 6.5 128.1875 C6.62818115 127.27895264 6.7563623 126.37040527 6.88842773 125.43432617 C7.84639131 118.49525415 8.63396471 111.54544561 9.265625 104.5690918 C9.61785379 100.86944346 10.12122585 97.30497418 10.92578125 93.67578125 C12.480543 86.21105599 13.10965155 78.61362266 13.85986328 71.03466797 C14.1224122 68.40095898 14.39862909 65.76892587 14.67578125 63.13671875 C18.08001413 39.05590971 18.08001413 39.05590971 11.375 16.875 C9.5930525 14.73137008 7.71956218 12.69636049 5.828125 10.6484375 C5.10109375 9.85695313 4.3740625 9.06546875 3.625 8.25 C2.93664062 7.53328125 2.24828125 6.8165625 1.5390625 6.078125 C0 4 0 4 0 0 Z " fill="#F7F70B" transform="translate(120,57)"/>
<path d="M0 0 C4.31259563 1.34206012 6.71467146 4.9617951 9.05859375 8.640625 C9.97706892 10.68292549 10.70503631 12.69810979 11.37890625 14.83203125 C12.38783284 17.51670373 14.25824367 19.43374425 16.05859375 21.640625 C16.77566357 23.62311215 17.44149788 25.62477849 18.05859375 27.640625 C19.55071803 30.72434852 21.12114523 33.76039181 22.70703125 36.796875 C26.39551676 43.94018629 29.41692638 50.96263498 31.99609375 58.58984375 C32.8221337 60.96167169 33.71268196 63.14084454 34.80859375 65.390625 C36.4872251 69.7550665 36.78777283 73.99931469 37.05859375 78.640625 C34.80859375 78.578125 34.80859375 78.578125 32.05859375 77.640625 C29.99609375 74.390625 29.99609375 74.390625 29.02734375 72.4765625 C27.68704066 69.93647196 25.86982994 67.86085 24.05859375 65.640625 C23.58421875 64.83625 23.10984375 64.031875 22.62109375 63.203125 C21.04114103 60.45954485 21.04114103 60.45954485 18.49609375 57.640625 C16.05859375 54.640625 16.05859375 54.640625 15.16015625 52.26171875 C11.95768869 44.64166296 3.72938925 36.77507075 -3.94140625 33.640625 C-9.45224741 33.16337895 -15.19434749 34.53291956 -19.61767578 37.92675781 C-21.48166057 39.51177546 -23.31090242 41.12809177 -25.12890625 42.765625 C-26.36847411 43.87678635 -27.61178618 44.98378952 -28.859375 46.0859375 C-29.40360107 46.57594238 -29.94782715 47.06594727 -30.50854492 47.57080078 C-31.94140625 48.640625 -31.94140625 48.640625 -33.94140625 48.640625 C-34.16828125 49.1975 -34.39515625 49.754375 -34.62890625 50.328125 C-36.30503468 53.28130366 -38.53813042 55.23734917 -40.94140625 57.640625 C-46.87821945 64.4089929 -46.87821945 64.4089929 -49.12890625 72.640625 C-49.12246094 73.32125 -49.11601562 74.001875 -49.109375 74.703125 C-48.99838371 76.85820709 -48.99838371 76.85820709 -47.94140625 79.640625 C-46.95140625 80.300625 -45.96140625 80.960625 -44.94140625 81.640625 C-43.92003168 83.29427906 -42.92528331 84.96439002 -41.94140625 86.640625 C-38.61948373 91.3972329 -35.09894659 95.58448808 -30.94140625 99.640625 C-24.63758602 106.51893131 -18.8821137 113.84911921 -13.1640625 121.21484375 C-12.68227539 121.83343262 -12.20048828 122.45202148 -11.70410156 123.08935547 C-10.7614969 124.30077702 -9.82187091 125.51452424 -8.88574219 126.73095703 C-6.11354787 130.29331825 -3.15404962 133.45927361 0.05859375 136.640625 C1.35810225 138.22165179 2.63152826 139.82467622 3.87109375 141.453125 C4.77794922 142.63841797 4.77794922 142.63841797 5.703125 143.84765625 C6.15042969 144.43933594 6.59773438 145.03101563 7.05859375 145.640625 C12.9042022 142.91597699 17.13971977 138.37026651 20.05859375 132.640625 C21.35205624 122.85182865 17.61175605 115.52741417 13.30078125 106.95703125 C11.9311898 103.30048049 11.83339927 100.51299086 12.05859375 96.640625 C15.57009168 96.84128202 16.91506068 97.5044526 19.49609375 99.953125 C22.43199024 103.77255147 24.39486392 108.10142792 26.43359375 112.4453125 C29.88635639 119.23463904 34.11189749 125.20185169 38.93359375 131.078125 C39.99534487 132.38626994 41.05654528 133.69486205 42.1171875 135.00390625 C42.62362793 135.6273291 43.13006836 136.25075195 43.65185547 136.89306641 C45.47225726 139.15450965 47.23640387 141.45675718 48.99609375 143.765625 C50.75464719 146.04413535 52.45312376 148.03515501 54.49609375 150.078125 C65.23665979 160.81869104 65.23665979 160.81869104 66.05859375 166.765625 C66.05859375 167.714375 66.05859375 168.663125 66.05859375 169.640625 C63.87109375 169.953125 63.87109375 169.953125 61.05859375 169.640625 C57.35681595 166.29806577 54.3303309 162.54699322 51.24609375 158.640625 C46.81784624 153.24842762 42.78936282 148.39876107 35.62109375 147.25 C30.14584725 147.01630045 24.79928728 147.76480056 20.05859375 150.640625 C18.35578678 152.27035012 16.68279979 153.9325529 15.05859375 155.640625 C15.75984375 156.39085937 16.46109375 157.14109375 17.18359375 157.9140625 C24.84740117 166.16217932 32.04821756 174.63495489 38.5390625 183.8515625 C40.05575842 185.76992036 40.05575842 185.76992036 42.3515625 187.3671875 C45.93151853 190.37373066 48.43124342 193.88493444 51.18359375 197.640625 C55.98501809 204.06393059 60.99514429 210.0388403 66.5 215.86328125 C69.05337037 218.63495504 71.40371432 221.50212733 73.74609375 224.453125 C78.24131072 230.03784698 83.09363384 234.66398506 89.05859375 238.640625 C89.05859375 239.300625 89.05859375 239.960625 89.05859375 240.640625 C97.5560229 241.16320615 97.5560229 241.16320615 105.05859375 237.640625 C109.17802095 236.2429622 112.70411624 235.37671727 117.05859375 235.640625 C117.38859375 237.290625 117.71859375 238.940625 118.05859375 240.640625 C116.04201192 242.22963083 114.02062489 243.81180115 111.99609375 245.390625 C111.43470703 245.8340625 110.87332031 246.2775 110.29492188 246.734375 C106.38113278 249.77594824 102.40373779 252.25406848 98.05859375 254.640625 C85.4330133 261.88351284 73.78840776 271.41889444 63.73046875 281.921875 C60.69367492 285.04381258 57.37542973 287.82366678 54.05859375 290.640625 C52.72054687 291.82978516 52.72054687 291.82978516 51.35546875 293.04296875 C50.411875 293.85894531 49.46828125 294.67492187 48.49609375 295.515625 C47.62855469 296.27617187 46.76101563 297.03671875 45.8671875 297.8203125 C42.50853934 299.99712758 40.03771277 300.49868259 36.05859375 300.640625 C35.39859375 299.980625 34.73859375 299.320625 34.05859375 298.640625 C34.23234859 295.33928312 34.85954144 293.87820356 36.99609375 291.328125 C39.05859375 289.640625 39.05859375 289.640625 41.05859375 289.640625 C41.39890625 288.774375 41.39890625 288.774375 41.74609375 287.890625 C43.4058572 285.04531622 45.47926042 283.70409166 48.05859375 281.640625 C54.10561076 275.5670277 58.10352862 270.08607274 58.49609375 261.265625 C58.04547064 249.42067474 50.60379941 242.03463365 43.05859375 233.640625 C42.24261719 232.72539062 41.42664063 231.81015625 40.5859375 230.8671875 C39.10363936 229.21453949 37.61687986 227.56587856 36.125 225.921875 C32.27767209 221.67454135 28.43860946 217.42652769 24.93359375 212.890625 C23.12929315 210.56555653 23.12929315 210.56555653 20.74609375 208.828125 C16.02418745 204.9847129 12.29866847 200.18494627 8.49609375 195.453125 C5.90813043 192.46701348 3.12165952 190.12936594 0.05859375 187.640625 C-2.4186086 185.28138467 -4.67842417 182.98522221 -6.75390625 180.265625 C-8.69084444 177.94129917 -10.58703946 176.15593284 -12.87890625 174.203125 C-16.3121574 171.27569354 -19.05031997 168.10992854 -21.94140625 164.640625 C-23.82511859 162.92274738 -25.76185594 161.27745502 -27.703125 159.625 C-30.22231524 157.39158178 -32.57732668 155.03738769 -34.94140625 152.640625 C-40.08608468 147.44071229 -45.48155749 142.65708467 -51.12890625 138.015625 C-53.88936336 135.68457233 -56.38830561 133.19372564 -58.94140625 130.640625 C-59.70453125 130.08375 -60.46765625 129.526875 -61.25390625 128.953125 C-61.81078125 128.52 -62.36765625 128.086875 -62.94140625 127.640625 C-62.94140625 126.980625 -62.94140625 126.320625 -62.94140625 125.640625 C-63.51890625 125.3725 -64.09640625 125.104375 -64.69140625 124.828125 C-66.94140625 123.640625 -66.94140625 123.640625 -68.87890625 122.140625 C-73.86390446 118.51517175 -78.88676495 117.77199038 -84.94140625 118.640625 C-93.63214303 120.89650476 -93.63214303 120.89650476 -100.94140625 125.640625 C-104.44140625 125.890625 -104.44140625 125.890625 -107.94140625 125.640625 C-108.60140625 124.980625 -109.26140625 124.320625 -109.94140625 123.640625 C-109.86874979 120.06229446 -109.0510461 118.7600147 -106.61328125 116.10546875 C-105.6490625 115.27144531 -104.68484375 114.43742187 -103.69140625 113.578125 C-102.7375 112.74152344 -101.78359375 111.90492188 -100.80078125 111.04296875 C-99.8571875 110.25019531 -98.91359375 109.45742187 -97.94140625 108.640625 C-97.0390625 107.87878906 -96.13671875 107.11695313 -95.20703125 106.33203125 C-92.94140625 104.640625 -92.94140625 104.640625 -90.94140625 104.640625 C-90.67972656 104.04121094 -90.41804688 103.44179687 -90.1484375 102.82421875 C-88.86920437 100.51000736 -87.67890183 99.34403055 -85.62890625 97.703125 C-82.55098789 95.16686929 -79.72761966 92.50015981 -76.94140625 89.640625 C-76.11640625 88.83625 -75.29140625 88.031875 -74.44140625 87.203125 C-71.86887606 84.6331275 -71.86887606 84.6331275 -69.44140625 81.640625 C-66.94140625 78.640625 -66.94140625 78.640625 -64.5703125 76.33203125 C-61.87097113 73.56851534 -59.64887754 70.70081595 -57.37890625 67.578125 C-53.35194161 62.0436658 -53.35194161 62.0436658 -51.015625 59.75 C-47.48644682 56.16100524 -44.74297325 51.95970411 -41.83203125 47.86523438 C-41.36023438 47.20974609 -40.8884375 46.55425781 -40.40234375 45.87890625 C-39.97743652 45.28118408 -39.5525293 44.68346191 -39.11474609 44.06762695 C-37.94140625 42.640625 -37.94140625 42.640625 -35.94140625 41.640625 C-35.47734375 40.403125 -35.47734375 40.403125 -35.00390625 39.140625 C-34.65328125 38.315625 -34.30265625 37.490625 -33.94140625 36.640625 C-32.95140625 36.310625 -31.96140625 35.980625 -30.94140625 35.640625 C-30.22147359 33.99626519 -29.5612904 32.32525133 -28.94140625 30.640625 C-28.0100783 29.17167917 -27.02617161 27.73530201 -26.00390625 26.328125 C-23.68768661 23.10872537 -21.41372693 19.87191288 -19.2109375 16.57421875 C-18.73325928 15.86370361 -18.25558105 15.15318848 -17.76342773 14.42114258 C-16.8157598 13.0094739 -15.8736377 11.59406265 -14.93774414 10.17456055 C-11.12007445 4.52446472 -7.51642894 -0.39784501 0 0 Z " fill="#F7F70A" transform="translate(320.94140625,136.359375)"/>
<path d="M0 0 C-1.45745424 3.36335594 -3.31117854 5.54534005 -5.9140625 8.109375 C-6.67460937 8.86347656 -7.43515625 9.61757812 -8.21875 10.39453125 C-9.0128125 11.17183594 -9.806875 11.94914063 -10.625 12.75 C-11.42679687 13.54277344 -12.22859375 14.33554688 -13.0546875 15.15234375 C-15.03202846 17.10614493 -17.01388909 19.05512103 -19 21 C-19.66 20.67 -20.32 20.34 -21 20 C-17.4914429 15.81625666 -13.91473058 11.81435287 -10 8 C-9.13375 7.13375 -8.2675 6.2675 -7.375 5.375 C-6.59125 4.59125 -5.8075 3.8075 -5 3 C-4.443125 2.401875 -3.88625 1.80375 -3.3125 1.1875 C-2 0 -2 0 0 0 Z " fill="#2D2D03" transform="translate(295,180)"/>
<path d="M0 0 C0.33 0 0.66 0 1 0 C1.08333357 4.8333472 0.95261487 9.23692563 0 14 C2.52985528 13.67613187 2.52985528 13.67613187 5 12 C6.07001562 9.05880129 6.57343918 6.09415757 7 3 C8.32554118 6.97662354 7.34765994 9.09887911 6 13 C4 15 4 15 1.375 15.125 C0.59125 15.08375 -0.1925 15.0425 -1 15 C-1.09038099 9.84828377 -0.84681133 5.08086796 0 0 Z " fill="#C4C41A" transform="translate(184,237)"/>
<path d="M0 0 C0.33 0 0.66 0 1 0 C0.17321655 7.02765937 -0.90248217 14.00998353 -2 21 C-2.33 21 -2.66 21 -3 21 C-3.55353075 6.21867882 -3.55353075 6.21867882 0 0 Z " fill="#D1D118" transform="translate(152,226)"/>
<path d="M0 0 C0 2.97 0 5.94 0 9 C-0.66 7.68 -1.32 6.36 -2 5 C-4.475 6.485 -4.475 6.485 -7 8 C-4.18918919 0 -4.18918919 0 0 0 Z " fill="#BABA0B" transform="translate(234,311)"/>
<path d="M0 0 C0.33 0 0.66 0 1 0 C1 3.96 1 7.92 1 12 C1.66 12 2.32 12 3 12 C3 12.66 3 13.32 3 14 C1.68 13.67 0.36 13.34 -1 13 C-1.02696365 11.20841511 -1.04637917 9.41671527 -1.0625 7.625 C-1.07410156 6.62726563 -1.08570313 5.62953125 -1.09765625 4.6015625 C-1 2 -1 2 0 0 Z " fill="#CDCD19" transform="translate(255,127)"/>
<path d="M0 0 C0.33 1.65 0.66 3.3 1 5 C0.34 4.34 -0.32 3.68 -1 3 C-3.90675183 2.97831363 -3.90675183 2.97831363 -7.125 3.375 C-8.22070312 3.48585938 -9.31640625 3.59671875 -10.4453125 3.7109375 C-11.28835938 3.80632812 -12.13140625 3.90171875 -13 4 C-12 2 -12 2 -8.75 0.875 C-5.62299365 0.14536518 -3.17377095 -0.19234975 0 0 Z " fill="#979709" transform="translate(438,372)"/>
<path d="M0 0 C5.77807024 -0.2358396 10.51324804 0.13216954 16 2 C16 2.33 16 2.66 16 3 C10.21101581 3.20674944 5.57067277 2.59162079 0 1 C0 0.67 0 0.34 0 0 Z " fill="#595904" transform="translate(160,344)"/>
<path d="M0 0 C0.66 0.33 1.32 0.66 2 1 C1.154375 1.70125 0.30875 2.4025 -0.5625 3.125 C-3.39309751 5.79457985 -3.39309751 5.79457985 -2.8125 9.3125 C-2.544375 10.199375 -2.27625 11.08625 -2 12 C-3.65 10.35 -5.3 8.7 -7 7 C-4.66666667 4.66666667 -2.33333333 2.33333333 0 0 Z " fill="#3B3B02" transform="translate(342,285)"/>
<path d="M0 0 C0.33 0 0.66 0 1 0 C1.1799928 5.21979128 0.97094808 9.07262981 -1 14 C-1.33 14 -1.66 14 -2 14 C-2.21192221 8.80790596 -1.5912689 4.873261 0 0 Z " fill="#696905" transform="translate(177,109)"/>
<path d="M0 0 C0.33 0 0.66 0 1 0 C1.16682272 4.92127034 1.24828052 8.50343896 -1 13 C-1.33 13 -1.66 13 -2 13 C-2.19294408 8.17639811 -1.75747614 4.50353262 0 0 Z " fill="#535303" transform="translate(118,236)"/>
<path d="M0 0 C0.33 0.66 0.66 1.32 1 2 C0.67 2.99 0.34 3.98 0 5 C-0.66 5 -1.32 5 -2 5 C-2.33 6.98 -2.66 8.96 -3 11 C-4.17841928 7.46474216 -3.91399027 5.5797952 -3 2 C-2.01 1.34 -1.02 0.68 0 0 Z " fill="#B1B119" transform="translate(228,335)"/>
<path d="M0 0 C0 0.99 0 1.98 0 3 C-0.66 3 -1.32 3 -2 3 C-2.33 4.32 -2.66 5.64 -3 7 C-4.32 6.67 -5.64 6.34 -7 6 C-4.69 4.02 -2.38 2.04 0 0 Z " fill="#C4C40C" transform="translate(237,233)"/>
</svg>
